<?xml version="1.0" standalone="no"?>
<!DOCTYPE svg PUBLIC "-//W3C//DTD SVG 20010904//EN"
 "http://www.w3.org/TR/2001/REC-SVG-20010904/DTD/svg10.dtd">
<svg version="1.0" xmlns="http://www.w3.org/2000/svg"
 width="919.000000pt" height="919.000000pt" viewBox="0 0 919.000000 919.000000"
 preserveAspectRatio="xMidYMid meet">
<metadata>
Created by potrace 1.14, written by Peter Selinger 2001-2017
</metadata>
<g transform="translate(0.000000,919.000000) scale(0.100000,-0.100000)"
fill="#000000" stroke="none">
<path d="M3307 6383 c-4 -3 -7 -281 -7 -618 l0 -611 -32 -19 c-50 -28 -206
-145 -347 -259 -161 -129 -219 -173 -306 -229 -76 -48 -206 -117 -222 -117 -6
0 -10 27 -10 63 0 61 -9 173 -18 232 -21 124 -56 278 -65 289 -14 14 -164 8
-236 -10 -216 -54 -452 -229 -744 -554 -41 -46 -79 -88 -85 -94 -5 -6 -64 -72
-130 -146 -259 -293 -499 -531 -645 -641 -123 -93 -237 -144 -343 -155 -34 -4
-64 -8 -66 -10 -2 -2 -11 2 -20 8 -14 11 -15 10 -1 -5 17 -18 206 -86 255 -92
17 -2 32 -4 34 -4 2 -1 -3 -9 -10 -18 -13 -16 -12 -17 4 -4 13 10 55 14 162
14 79 0 142 4 140 7 -3 4 7 8 20 9 14 1 36 3 49 4 13 1 22 5 19 10 -2 4 2 7
11 7 8 0 17 -6 19 -12 3 -8 6 -5 6 6 1 12 6 16 16 12 8 -3 15 -1 15 4 0 5 18
15 40 21 22 7 40 16 40 21 0 4 7 8 15 8 16 0 38 12 107 57 20 14 44 26 53 27
9 1 20 7 23 12 4 5 26 21 49 36 29 19 43 24 46 15 4 -8 6 -6 6 3 1 9 19 27 41
40 22 14 40 28 40 33 0 4 7 7 15 7 8 0 15 5 15 11 0 5 5 7 10 4 6 -3 13 1 16
9 3 9 10 14 14 11 4 -3 11 2 14 11 3 8 10 12 16 9 6 -3 13 1 16 9 3 9 12 16
20 16 8 0 14 4 14 9 0 5 7 12 16 15 10 4 13 2 9 -7 -4 -6 2 -3 12 9 27 31 91
66 104 58 8 -4 9 -3 5 4 -3 6 3 16 14 22 11 6 20 8 20 5 0 -4 7 1 16 9 8 9 20
14 25 11 5 -4 9 -2 9 3 0 16 191 98 253 108 28 5 37 -11 17 -34 -7 -9 -7 -9 2
-2 21 18 30 11 24 -17 -5 -21 -4 -24 4 -13 8 13 11 11 16 -7 4 -13 10 -23 14
-23 7 0 33 -52 30 -59 -1 -2 2 -7 7 -10 12 -9 113 -150 113 -159 0 -4 9 -14
19 -22 11 -7 18 -17 15 -22 -4 -7 52 -13 79 -9 4 0 7 -2 7 -6 0 -5 26 -8 58
-8 31 1 67 -3 80 -7 12 -4 22 -4 22 0 0 4 15 7 34 7 20 0 32 -4 28 -10 -3 -5
2 -4 11 4 9 7 17 11 17 8 0 -3 14 -2 30 3 20 6 28 5 24 -1 -3 -6 4 -5 15 3 18
11 23 11 30 0 6 -11 10 -10 15 4 3 9 9 14 12 11 3 -3 20 -1 37 4 22 6 33 5 39
-4 5 -8 8 -6 8 7 0 13 5 17 20 13 11 -3 18 -1 14 4 -5 8 18 13 53 12 7 -1 10
3 7 8 -3 5 1 9 8 9 22 0 219 100 271 137 26 19 47 32 47 29 0 -3 11 5 24 17
13 12 45 37 72 56 27 19 61 46 77 60 15 14 27 21 27 17 0 -5 9 3 21 18 26 33
39 33 39 1 0 -14 5 -25 12 -25 6 0 3 -7 -8 -15 -16 -12 -16 -14 -2 -9 13 4 20
-1 27 -18 19 -51 57 -125 83 -164 15 -23 28 -45 28 -48 0 -6 23 -36 48 -61 6
-8 12 -16 12 -18 0 -8 96 -102 141 -138 23 -19 52 -44 65 -57 13 -12 27 -23
31 -25 5 -1 7 -6 5 -11 -2 -5 3 -6 11 -3 8 3 27 -6 43 -20 16 -14 47 -37 68
-50 31 -20 36 -27 25 -35 -11 -8 -10 -8 5 -4 22 7 119 -61 109 -77 -3 -6 -1
-7 6 -3 17 11 167 -102 163 -123 -2 -13 -1 -13 7 -2 7 11 12 11 22 2 8 -6 51
-39 96 -72 46 -34 80 -65 77 -70 -3 -5 1 -6 9 -4 7 3 24 -4 37 -15 13 -12 39
-30 57 -41 19 -12 30 -26 26 -32 -3 -7 -2 -9 2 -4 5 4 17 -1 28 -10 11 -10 17
-13 14 -7 -4 7 6 17 23 24 17 7 30 17 30 22 0 5 10 6 23 3 15 -4 18 -4 8 3
-10 8 -5 15 25 36 31 21 41 23 53 13 14 -10 14 -10 3 4 -10 14 -4 22 47 57 32
23 62 38 66 34 5 -4 5 -2 1 5 -7 13 27 37 38 26 3 -3 6 -1 6 5 0 12 81 73 92
69 4 -1 13 5 20 14 27 32 98 80 109 73 7 -4 9 -3 5 4 -8 13 63 64 77 55 6 -3
7 -1 3 5 -3 6 7 19 24 28 16 10 30 23 30 28 0 5 3 7 6 4 3 -4 14 1 24 10 23
21 73 57 80 57 3 0 19 12 35 27 20 19 36 26 50 22 13 -3 16 -2 8 3 -9 6 6 25
49 63 33 30 65 54 70 52 5 -1 7 2 4 6 -8 14 32 56 54 57 11 1 23 5 27 10 5 4
-2 4 -14 1 -13 -4 -23 -4 -23 -1 0 17 55 70 69 67 13 -2 13 -1 2 7 -11 7 -9
18 16 58 16 26 35 63 42 80 7 18 17 31 21 28 4 -3 7 3 6 13 0 10 5 16 14 14
12 -3 12 -1 3 9 -17 17 4 59 26 52 13 -4 13 -2 -2 10 -10 8 -14 18 -9 21 5 3
18 -2 28 -12 10 -9 35 -29 54 -43 19 -15 49 -39 65 -53 17 -14 36 -26 44 -26
8 0 11 -6 7 -16 -3 -8 -2 -12 4 -9 12 8 55 -21 55 -37 0 -6 9 -12 21 -13 11
-1 35 -11 51 -23 17 -12 36 -22 42 -22 6 0 11 -4 11 -10 0 -5 7 -10 15 -10 8
0 15 -5 15 -11 0 -5 4 -8 9 -4 5 3 15 0 23 -7 7 -7 20 -14 28 -16 8 -2 17 -7
20 -10 3 -4 12 -9 20 -11 45 -12 80 -27 80 -33 0 -5 14 -8 31 -8 16 0 28 -4
25 -9 -3 -5 0 -8 7 -7 26 2 152 -27 159 -38 5 -7 8 -7 8 2 0 7 5 10 10 7 6 -4
7 -11 4 -17 -5 -7 -2 -8 7 -2 19 11 209 12 201 0 -3 -5 1 -5 9 0 8 5 28 10 44
11 78 6 121 17 133 34 7 10 18 24 25 31 6 8 17 23 24 33 6 11 16 19 21 18 5
-1 9 5 8 15 0 9 5 16 12 14 8 -1 11 2 7 8 -8 13 30 62 40 52 5 -4 5 -2 1 5 -9
16 23 65 37 56 6 -3 7 -1 3 5 -7 11 19 72 30 72 3 0 2 -5 -2 -12 -4 -7 -3 -8
4 -4 6 4 9 13 6 21 -4 8 1 18 10 21 9 3 14 10 11 14 -3 5 -1 11 4 14 5 4 12 2
16 -4 3 -5 12 -10 20 -10 30 0 175 -62 168 -72 -3 -7 -1 -8 6 -4 11 7 163 -69
169 -85 2 -5 7 -9 12 -9 15 0 130 -72 130 -81 0 -5 3 -8 8 -7 15 5 93 -53 86
-64 -4 -7 -3 -8 5 -4 13 8 121 -60 121 -76 0 -5 4 -7 8 -4 5 3 19 -2 31 -11
18 -12 20 -17 10 -25 -10 -7 -8 -8 7 -3 13 3 28 0 37 -9 8 -8 17 -12 21 -9 3
4 6 1 6 -5 0 -7 7 -12 16 -12 8 0 12 -4 9 -10 -3 -6 1 -7 9 -4 9 4 18 -1 22
-10 3 -9 10 -13 15 -10 5 3 9 0 9 -6 0 -6 5 -8 10 -5 6 3 10 1 10 -4 0 -6 3
-10 8 -9 14 3 42 -14 37 -22 -3 -5 0 -12 6 -16 8 -4 9 -3 5 4 -11 17 6 15 60
-10 27 -12 51 -23 54 -23 3 -1 22 -5 42 -9 22 -5 35 -12 31 -19 -3 -6 -1 -7 5
-3 6 4 34 4 61 0 39 -5 48 -10 44 -23 -4 -15 -4 -15 6 0 12 18 60 14 73 -5 5
-8 8 -7 8 2 0 7 14 12 34 12 19 0 37 -6 39 -12 4 -8 6 -7 6 4 1 9 8 15 17 14
28 -4 124 14 193 36 62 19 171 64 171 70 0 2 -28 3 -63 2 -34 0 -84 5 -112 13
-59 16 -215 92 -215 104 0 5 -5 9 -11 9 -35 0 -415 361 -604 575 -44 50 -96
108 -116 130 -20 22 -78 87 -129 145 -134 152 -343 356 -438 427 -142 107
-269 171 -384 194 -52 10 -205 15 -214 7 -5 -6 -51 -211 -58 -263 -16 -110
-22 -183 -22 -250 1 -53 -3 -75 -11 -75 -23 0 -187 91 -279 155 -50 35 -176
132 -279 214 -104 83 -224 175 -269 205 l-81 55 1 603 c0 332 -2 609 -4 615
-3 10 -277 13 -1287 13 -705 0 -1285 -3 -1288 -7z"/>
<path d="M3323 4074 c-3 -8 -2 -19 3 -24 5 -5 9 1 9 16 0 28 -3 30 -12 8z"/>
<path d="M5830 4030 c0 -5 5 -10 11 -10 5 0 7 5 4 10 -3 6 -8 10 -11 10 -2 0
-4 -4 -4 -10z"/>
<path d="M3350 4005 c-7 -8 -17 -12 -23 -8 -6 4 -7 1 -3 -6 6 -9 13 -8 27 5
10 9 19 19 19 21 0 7 -8 2 -20 -12z"/>
<path d="M3230 3990 c0 -5 5 -10 11 -10 5 0 7 5 4 10 -3 6 -8 10 -11 10 -2 0
-4 -4 -4 -10z"/>
<path d="M3229 3953 c-13 -16 -12 -17 4 -4 16 13 21 21 13 21 -2 0 -10 -8 -17
-17z"/>
<path d="M1815 3950 c-3 -5 -1 -10 4 -10 6 0 11 5 11 10 0 6 -2 10 -4 10 -3 0
-8 -4 -11 -10z"/>
<path d="M7415 3930 c3 -5 8 -10 11 -10 2 0 4 5 4 10 0 6 -5 10 -11 10 -5 0
-7 -4 -4 -10z"/>
<path d="M1590 3926 c0 -2 8 -10 18 -17 15 -13 16 -12 3 4 -13 16 -21 21 -21
13z"/>
<path d="M5975 3890 c-3 -5 -1 -10 4 -10 6 0 11 5 11 10 0 6 -2 10 -4 10 -3 0
-8 -4 -11 -10z"/>
<path d="M7646 3892 c-3 -5 1 -9 9 -9 8 0 12 4 9 9 -3 4 -7 8 -9 8 -2 0 -6 -4
-9 -8z"/>
<path d="M3090 3850 c0 -5 5 -10 11 -10 5 0 7 5 4 10 -3 6 -8 10 -11 10 -2 0
-4 -4 -4 -10z"/>
<path d="M1395 3791 c-3 -5 -2 -12 3 -15 5 -3 9 1 9 9 0 17 -3 19 -12 6z"/>
<path d="M1425 3790 c-3 -6 1 -7 9 -4 18 7 21 14 7 14 -6 0 -13 -4 -16 -10z"/>
<path d="M2815 3730 c3 -5 8 -10 11 -10 2 0 4 5 4 10 0 6 -5 10 -11 10 -5 0
-7 -4 -4 -10z"/>
<path d="M2935 3730 c-3 -5 -1 -10 4 -10 6 0 11 5 11 10 0 6 -2 10 -4 10 -3 0
-8 -4 -11 -10z"/>
<path d="M1305 3710 c-3 -6 1 -7 9 -4 18 7 21 14 7 14 -6 0 -13 -4 -16 -10z"/>
<path d="M1353 3705 c0 -8 4 -12 9 -9 4 3 8 9 8 15 0 5 -4 9 -8 9 -5 0 -9 -7
-9 -15z"/>
<path d="M2873 3685 c0 -8 4 -12 9 -9 4 3 8 9 8 15 0 5 -4 9 -8 9 -5 0 -9 -7
-9 -15z"/>
<path d="M2700 3676 c0 -2 8 -10 18 -17 15 -13 16 -12 3 4 -13 16 -21 21 -21
13z"/>
<path d="M6376 3663 c-6 -14 -5 -15 5 -6 7 7 10 15 7 18 -3 3 -9 -2 -12 -12z"/>
<path d="M6450 3650 c0 -5 5 -10 11 -10 5 0 7 5 4 10 -3 6 -8 10 -11 10 -2 0
-4 -4 -4 -10z"/>
<path d="M2149 3633 c-13 -16 -12 -17 4 -4 16 13 21 21 13 21 -2 0 -10 -8 -17
-17z"/>
<path d="M2550 3646 c0 -2 8 -10 18 -17 15 -13 16 -12 3 4 -13 16 -21 21 -21
13z"/>
<path d="M6954 3639 c-3 -6 -2 -15 3 -20 5 -5 9 -1 9 11 0 23 -2 24 -12 9z"/>
<path d="M6915 3630 c-3 -5 -1 -10 4 -10 6 0 11 5 11 10 0 6 -2 10 -4 10 -3 0
-8 -4 -11 -10z"/>
<path d="M7956 3623 c-6 -14 -5 -15 5 -6 7 7 10 15 7 18 -3 3 -9 -2 -12 -12z"/>
<path d="M1215 3610 c3 -5 8 -10 11 -10 2 0 4 5 4 10 0 6 -5 10 -11 10 -5 0
-7 -4 -4 -10z"/>
<path d="M2490 3610 c0 -5 5 -10 11 -10 5 0 7 5 4 10 -3 6 -8 10 -11 10 -2 0
-4 -4 -4 -10z"/>
<path d="M3676 3552 c-3 -5 1 -9 9 -9 8 0 12 4 9 9 -3 4 -7 8 -9 8 -2 0 -6 -4
-9 -8z"/>
<path d="M5547 3549 c7 -7 15 -10 18 -7 3 3 -2 9 -12 12 -14 6 -15 5 -6 -5z"/>
<path d="M5466 3512 c-2 -4 4 -8 14 -8 10 0 16 4 14 8 -3 4 -9 8 -14 8 -5 0
-11 -4 -14 -8z"/>
<path d="M8196 3477 c3 -10 9 -15 12 -12 3 3 0 11 -7 18 -10 9 -11 8 -5 -6z"/>
<path d="M8234 3479 c-3 -6 -2 -15 3 -20 5 -5 9 -1 9 11 0 23 -2 24 -12 9z"/>
<path d="M3753 3425 c0 -8 4 -12 9 -9 5 3 6 10 3 15 -9 13 -12 11 -12 -6z"/>
<path d="M8399 3423 c-13 -16 -12 -17 4 -4 16 13 21 21 13 21 -2 0 -10 -8 -17
-17z"/>
<path d="M8836 3392 c-3 -5 1 -9 9 -9 8 0 12 4 9 9 -3 4 -7 8 -9 8 -2 0 -6 -4
-9 -8z"/>
<path d="M175 3370 c3 -5 8 -10 11 -10 2 0 4 5 4 10 0 6 -5 10 -11 10 -5 0 -7
-4 -4 -10z"/>
<path d="M8730 3369 c0 -5 5 -7 10 -4 6 3 10 8 10 11 0 2 -4 4 -10 4 -5 0 -10
-5 -10 -11z"/>
<path d="M8835 3359 c-4 -6 -5 -12 -2 -15 2 -3 7 2 10 11 7 17 1 20 -8 4z"/>
<path d="M3855 3351 c-3 -5 -2 -12 3 -15 5 -3 9 1 9 9 0 17 -3 19 -12 6z"/>
<path d="M3950 3346 c7 -7 13 -7 20 0 6 6 3 10 -10 10 -13 0 -16 -4 -10 -10z"/>
<path d="M210 3330 c0 -5 5 -10 11 -10 5 0 7 5 4 10 -3 6 -8 10 -11 10 -2 0
-4 -4 -4 -10z"/>
<path d="M8673 3315 c0 -8 4 -12 9 -9 5 3 6 10 3 15 -9 13 -12 11 -12 -6z"/>
<path d="M3950 3316 c0 -2 7 -7 16 -10 8 -3 12 -2 9 4 -6 10 -25 14 -25 6z"/>
<path d="M8705 3309 c-3 -4 2 -6 10 -5 21 3 28 13 10 13 -9 0 -18 -4 -20 -8z"/>
<path d="M5140 3276 c0 -2 8 -10 18 -17 15 -13 16 -12 3 4 -13 16 -21 21 -21
13z"/>
<path d="M4055 3210 c3 -5 8 -10 11 -10 2 0 4 5 4 10 0 6 -5 10 -11 10 -5 0
-7 -4 -4 -10z"/>
<path d="M5095 3190 c-3 -5 -1 -10 4 -10 6 0 11 5 11 10 0 6 -2 10 -4 10 -3 0
-8 -4 -11 -10z"/>
<path d="M4135 3159 c-4 -6 -5 -12 -2 -15 2 -3 7 2 10 11 7 17 1 20 -8 4z"/>
<path d="M4960 3130 c-9 -6 -10 -10 -3 -10 6 0 15 5 18 10 8 12 4 12 -15 0z"/>
<path d="M5000 3130 c-8 -5 -10 -10 -5 -10 6 0 17 5 25 10 8 5 11 10 5 10 -5
0 -17 -5 -25 -10z"/>
<path d="M4190 3110 c0 -5 5 -10 11 -10 5 0 7 5 4 10 -3 6 -8 10 -11 10 -2 0
-4 -4 -4 -10z"/>
<path d="M4280 3116 c0 -2 8 -10 18 -17 15 -13 16 -12 3 4 -13 16 -21 21 -21
13z"/>
<path d="M4830 3076 c0 -2 7 -7 16 -10 8 -3 12 -2 9 4 -6 10 -25 14 -25 6z"/>
<path d="M4915 3061 c-3 -5 -2 -12 3 -15 5 -3 9 1 9 9 0 17 -3 19 -12 6z"/>
<path d="M4427 2989 c7 -7 15 -10 18 -7 3 3 -2 9 -12 12 -14 6 -15 5 -6 -5z"/>
<path d="M4426 2952 c-2 -4 4 -8 14 -8 10 0 16 4 14 8 -3 4 -9 8 -14 8 -5 0
-11 -4 -14 -8z"/>
<path d="M4570 2850 c0 -5 5 -10 11 -10 5 0 7 5 4 10 -3 6 -8 10 -11 10 -2 0
-4 -4 -4 -10z"/>
</g>
</svg>
