<svg width="17" height="10" viewBox="0 0 17 10" fill="none" xmlns="http://www.w3.org/2000/svg">
<path d="M16.6636 1.98157L9.12797 9.74654C9.03826 9.83871 8.94107 9.90384 8.83641 9.94194C8.73175 9.98064 8.61961 10 8.5 10C8.38039 10 8.26825 9.98064 8.16359 9.94194C8.05893 9.90384 7.96174 9.83871 7.87203 9.74654L0.313984 1.98157C0.104661 1.76651 -3.71647e-07 1.4977 -3.85748e-07 1.17512C-3.99848e-07 0.852535 0.112137 0.576038 0.336411 0.345623C0.560686 0.115209 0.822339 9.17729e-07 1.12137 9.04658e-07C1.4204 8.91586e-07 1.68206 0.115209 1.90633 0.345623L8.5 7.11982L15.0937 0.345622C15.303 0.130569 15.5608 0.023042 15.867 0.023042C16.1738 0.023042 16.4393 0.138249 16.6636 0.368664C16.8879 0.599078 17 0.867895 17 1.17511C17 1.48233 16.8879 1.75115 16.6636 1.98157Z" fill="#302929"/>
</svg>
