<svg width="55" height="43" viewBox="0 0 55 43" fill="none" xmlns="http://www.w3.org/2000/svg">
<path d="M23.0726 31.8125H42.1095C42.5847 31.8125 42.9689 31.4275 42.9689 30.9531V17.2031C42.9689 16.7288 42.5847 16.3438 42.1095 16.3438H12.8907C12.4155 16.3438 12.0314 16.7288 12.0314 17.2031V21.6048C11.5811 21.5404 11.1264 21.5 10.6684 21.5C9.1791 21.5 7.68723 21.8523 6.35434 22.5184L5.35918 23.0159C3.96957 23.7112 2.4141 24.0781 0.860352 24.0781V25.7969C2.67879 25.7969 4.50066 25.3672 6.12832 24.5534L7.12348 24.0558C9.82535 22.7066 13.2646 23.0718 15.6201 24.9555L20.5727 28.9173C21.1528 29.3822 21.4854 30.074 21.4854 30.8156C21.4854 31.2977 21.3444 31.7644 21.0763 32.1648L20.3871 33.1987L13.3677 28.5194L12.4146 29.9494L20.149 35.1056C20.2504 35.1735 20.3673 35.2199 20.4911 35.2397L34.8632 37.5093C35.5765 37.621 36.0939 38.2269 36.0939 38.9496C36.0939 39.7523 35.4399 40.4062 34.6364 40.4062H21.4845C19.3687 40.4062 17.2504 39.9061 15.358 38.9599L10.4252 36.4935C8.79754 35.6797 6.97566 35.25 5.15723 35.25H0.860352V36.9688H5.15723C6.71098 36.9688 8.26645 37.3357 9.65605 38.0309L14.5889 40.4973C16.7193 41.5621 19.1032 42.125 21.4845 42.125H34.6364C36.3878 42.125 37.8126 40.7002 37.8126 38.9496C37.8126 37.3761 36.6851 36.057 35.1322 35.8112L22.0852 33.7513L22.5063 33.1187C22.7744 32.7174 22.9583 32.274 23.0726 31.8125ZM37.8994 30.0938C38.2423 28.4128 39.5692 27.0859 41.2501 26.743V30.0938H37.8994ZM41.2501 21.4132C39.5692 21.0703 38.2423 19.7434 37.8994 18.0625H41.2501V21.4132ZM17.1008 18.0625C16.7579 19.7434 15.4311 21.0703 13.7501 21.4132V18.0625H17.1008ZM21.6461 27.5749L18.3495 24.9375H21.4845V23.2188H18.047V24.696L16.6943 23.6141C16.2638 23.2695 15.804 22.9644 15.3236 22.7005C17.179 21.8755 18.5386 20.1396 18.8376 18.0634H36.1626C36.5416 20.6922 38.6213 22.7719 41.2501 23.1509V25.0071C38.6213 25.3861 36.5416 27.4658 36.1626 30.0946H23.1354C22.9618 29.108 22.4444 28.2143 21.6461 27.5749Z" fill="#000000"/>
<path d="M27.5 28.375C29.8693 28.375 31.7969 26.4474 31.7969 24.0781C31.7969 21.7088 29.8693 19.7812 27.5 19.7812C25.1307 19.7812 23.2031 21.7088 23.2031 24.0781C23.2031 26.4474 25.1307 28.375 27.5 28.375ZM27.5 21.5C28.9214 21.5 30.0781 22.6567 30.0781 24.0781C30.0781 25.4995 28.9214 26.6562 27.5 26.6562C26.0786 26.6562 24.9219 25.4995 24.9219 24.0781C24.9219 22.6567 26.0786 21.5 27.5 21.5Z" fill="#000000"/>
<path d="M33.5156 23.2188H36.9531V24.9375H33.5156V23.2188Z" fill="#000000"/>
<path d="M33.5156 3.45328H30.0781V1.73453C30.0781 1.43633 29.9234 1.16047 29.6699 1.0032C29.4164 0.845936 29.1002 0.832186 28.8337 0.965389L18.5213 6.12164C18.2308 6.26773 18.0469 6.56508 18.0469 6.89078C18.0469 7.21648 18.2308 7.51383 18.5221 7.65992L28.8346 12.8162C29.1019 12.9485 29.4181 12.9348 29.6708 12.7784C29.9234 12.6211 30.0781 12.3452 30.0781 12.047V10.3283H33.5156C41.097 10.3283 47.2656 16.4969 47.2656 24.0783C47.2656 24.5527 47.6498 24.9377 48.125 24.9377H53.2812C53.7565 24.9377 54.1406 24.5527 54.1406 24.0783C54.1406 12.7062 44.8877 3.45328 33.5156 3.45328ZM48.9612 23.2189C48.5134 15.0875 41.757 8.60953 33.5156 8.60953H29.2188C28.7435 8.60953 28.3594 8.99453 28.3594 9.46891V10.6566L20.8278 6.89078L28.3594 3.125V4.31265C28.3594 4.78703 28.7435 5.17203 29.2188 5.17203H33.5156C43.6528 5.17203 51.9509 13.1917 52.403 23.2189H48.9612Z" fill="#000000"/>
</svg>
