<svg width="45" height="43" viewBox="0 0 45 43" fill="none" xmlns="http://www.w3.org/2000/svg">
<path d="M41.3375 33.6449L40.8479 33.5326C45.5927 29.6455 46.6038 21.0143 42.1347 16.5171C40.415 14.7875 39.3878 12.0502 39.3878 9.19405C39.3878 5.05425 36.6645 1.68555 33.3164 1.68555C29.9694 1.68555 27.2451 5.05425 27.2451 9.19405C27.2451 10.1348 27.1339 11.0617 26.9224 11.9441C23.8033 8.34398 18.8501 7.9313 15.5381 10.2326V1.78821C15.5381 1.42222 15.2411 1.12525 14.8755 1.12525C14.5095 1.12525 14.2125 1.42222 14.2125 1.78821V4.39129C12.2326 0.819348 8.62974 -0.136123 4.595 0.676181C4.18747 0.758579 3.95504 1.19254 4.11228 1.57775C4.14936 1.66804 5.04235 3.82034 6.76755 5.70485C8.8093 7.93542 11.3434 9.04298 14.2125 8.24853V10.2326C10.3189 7.52721 3.79952 8.49847 1.12125 14.6673C0.975676 15.0031 1.13017 15.3928 1.46594 15.5387C1.80206 15.6846 2.19173 15.5308 2.33764 15.1947C4.78863 9.55042 10.6495 9.09448 13.758 11.5427C14.4051 12.0872 15.3489 12.0845 15.9927 11.5427C19.5313 8.75562 25.6531 9.96859 27.7508 16.067C28.8786 19.3516 28.6531 22.7866 26.6954 26.3396C25.9168 27.7325 25.2768 28.8905 24.7481 29.8549C20.6426 28.9705 20.0566 28.6471 18.6593 28.6773C18.2933 28.6845 18.0025 28.9867 18.0104 29.3527C18.0176 29.7197 18.319 30.0111 18.6867 30.0022C18.9271 29.9971 19.2 30.0094 19.488 30.0448L19.0905 33.6154C19.05 33.9789 19.3119 34.3068 19.6758 34.3473C20.0411 34.3878 20.3676 34.1245 20.4082 33.762L20.7927 30.3102C23.4407 30.9148 25.1642 31.3089 27.2176 31.7786L27.0281 33.4811C26.9876 33.845 27.2496 34.1729 27.6135 34.2134C27.9788 34.2539 28.3053 33.9906 28.3458 33.6277L28.5185 32.0756C28.9281 32.1693 38.3372 34.3185 38.455 34.3456L37.9431 38.9417C37.9026 39.3056 38.1649 39.6335 38.5284 39.674C38.8941 39.7145 39.2202 39.4512 39.2608 39.0886L39.7562 34.6429L41.0426 34.9372C42.6373 35.3011 43.6907 36.7825 43.5087 38.4089C43.3285 40.0263 41.9644 41.2488 40.3374 41.2523L33.552 41.2653L33.793 39.1037C33.8335 38.7398 33.5715 38.4119 33.2076 38.3714C32.8433 38.3313 32.5158 38.5929 32.4753 38.9568L32.2178 41.2681L25.7146 41.2804L25.9408 39.2483C25.9813 38.8847 25.7194 38.5568 25.3554 38.5163C24.9926 38.4755 24.6637 38.7378 24.6231 39.1017C24.5668 39.6081 24.3859 41.2293 24.3804 41.2832L21.2668 41.289L21.6609 37.7517C21.7015 37.3881 21.4395 37.0603 21.0756 37.0198C20.7113 36.9789 20.3838 37.2412 20.3433 37.6051L19.9323 41.2917C19.9258 41.2917 19.921 41.2917 19.9172 41.2917C19.9169 41.2917 19.9162 41.2917 19.9158 41.2917C19.9148 41.2917 19.9138 41.2917 19.9127 41.2917C19.9127 41.2917 19.9124 41.2917 19.9121 41.2917C19.9107 41.2917 19.91 41.2917 19.9086 41.2917C19.8657 41.2917 19.6576 41.2921 18.8107 41.2938C16.2086 41.2938 13.978 39.5188 13.3439 37.0661C12.6933 34.5609 13.8325 31.7635 16.3968 30.545C16.7274 30.3878 16.8685 29.9926 16.7112 29.662C16.554 29.3314 16.1588 29.1899 15.8282 29.3475C14.5359 29.9607 13.4933 30.9278 12.7994 32.1102C11.4577 31.4411 9.92304 30.3885 9.10456 28.8384C8.04677 26.8289 4.996 27.5835 4.9857 29.8522L2.90859 26.076C1.48483 23.489 0.963316 20.5855 1.58302 17.589C1.65717 17.2302 1.42646 16.8794 1.06769 16.8052C0.708913 16.731 0.358723 16.9618 0.284565 17.3205C-0.38011 20.5361 0.124576 23.7664 1.74644 26.7152L4.57852 31.8627L2.50312 31.6313C1.30218 31.4977 0.221737 32.3609 0.0881835 33.5625C-0.0450261 34.7603 0.82015 35.8439 2.01869 35.9774L5.45502 36.3599C4.60289 37.1228 3.91693 37.8142 4.00311 38.9046C4.15211 40.832 6.57701 41.6351 7.84421 40.1553C8.88723 38.9348 10.517 38.1809 12.1691 37.774C13.0672 40.5814 15.7046 42.6197 18.8107 42.6197C19.8207 42.6177 39.1193 42.5806 40.3391 42.5782C42.8451 42.5734 44.8549 40.5426 44.8549 38.0508C44.8545 35.9297 43.4085 34.1176 41.3375 33.6449ZM5.70153 1.8325C10.1095 1.23065 12.889 3.33145 13.8174 6.98201C10.2262 7.94881 7.40201 5.10987 5.70153 1.8325ZM39.119 33.1375L26.097 30.1622C26.4733 29.4728 26.8908 28.712 27.3557 27.875C28.5834 29.9899 30.8723 31.4147 33.4878 31.4147C36.8527 31.4147 39.774 29.0231 40.4332 25.7278C40.505 25.3691 40.2715 25.0199 39.9127 24.9485C39.5529 24.8767 39.2048 25.1092 39.133 25.4679C38.5975 28.1452 36.2234 30.0891 33.4878 30.0891C31.066 30.0891 28.9888 28.5857 28.1395 26.4632C29.2408 24.3669 29.7685 22.1518 29.7507 19.9545C33.0768 17.1104 38.205 18.9043 39.1145 23.1062C39.1924 23.4643 39.544 23.6916 39.9031 23.6137C40.2609 23.5361 40.4881 23.1831 40.4102 22.8254C40.0737 21.2688 39.2038 19.8536 37.9637 18.8408C35.6074 16.9178 32.2394 16.7008 29.6456 18.3831C29.4249 16.6407 28.8457 14.8249 27.9204 13.3122C28.3455 12.0306 28.571 10.6357 28.571 9.19405C28.571 6.13538 30.4761 3.01147 33.3164 3.01147C36.1266 3.01147 38.0619 6.09349 38.0619 9.19405C38.0619 12.4398 39.2038 15.4494 41.1944 17.4524C44.6468 20.9241 44.3128 27.3696 41.3138 31.1664C40.6622 31.9911 39.9206 32.6541 39.119 33.1375ZM11.8869 36.4687C9.99823 36.9281 8.08729 37.831 6.83656 39.2936C6.52791 39.6544 5.9834 39.6967 5.62291 39.3884C5.26139 39.0783 5.21916 38.5359 5.52849 38.1754C6.10562 37.5008 6.79708 36.9137 7.53282 36.4413C8.05467 36.1038 7.8655 35.2946 7.24649 35.2262C6.67245 35.162 2.5996 34.7078 2.16529 34.6594C1.69425 34.6072 1.35299 34.1805 1.40517 33.7094C1.45736 33.2435 1.8745 32.8971 2.35618 32.9493C2.35893 32.9497 2.36167 32.9497 2.36408 32.95C2.3627 32.95 2.36133 32.9497 2.3603 32.9497C2.36339 32.95 2.36854 32.9507 2.37609 32.9514C2.37575 32.9514 2.37541 32.9514 2.37472 32.9514C2.38193 32.9521 2.38708 32.9524 2.39017 32.9531C2.38777 32.9527 2.38433 32.9524 2.38056 32.9517C2.51617 32.9668 3.30822 33.0551 6.97251 33.4636C7.18332 33.4502 7.82567 33.7232 8.10651 33.1471C8.22942 32.8944 8.17999 32.5929 7.9836 32.3924C7.34021 31.7364 6.81081 31.0188 6.41049 30.2604C6.18871 29.8405 6.35041 29.319 6.76927 29.0972H6.7703C7.19396 28.8744 7.71032 29.0382 7.93245 29.457C8.9092 31.3079 10.7007 32.539 12.2422 33.3053C11.8903 34.2979 11.7588 35.4006 11.8869 36.4687Z" fill="black"/>
</svg>
