<svg width="54" height="42" viewBox="0 0 54 42" fill="none" xmlns="http://www.w3.org/2000/svg">
<path fill-rule="evenodd" clip-rule="evenodd" d="M18.8947 41.8437H2.68523C1.20445 41.8437 0 40.6393 0 39.1596V4.89275C0 3.41197 1.20445 2.20752 2.68523 2.20752H16.8434C17.1925 2.20752 17.4762 2.49123 17.4762 2.84033C17.4762 3.19049 17.1925 3.47314 16.8434 3.47314H2.68523C1.90266 3.47314 1.26563 4.11018 1.26563 4.89275V39.1596C1.26563 39.9411 1.90266 40.5781 2.68523 40.5781H18.8947C19.6773 40.5781 20.3143 39.9411 20.3143 39.1585C20.3143 38.8094 20.597 38.5257 20.9471 38.5257C21.2963 38.5257 21.58 38.8094 21.58 39.1585C21.58 40.6393 20.3755 41.8437 18.8947 41.8437Z" fill="black"/>
<path fill-rule="evenodd" clip-rule="evenodd" d="M35.1057 39.7914H18.8951C17.4154 39.7914 16.2109 38.588 16.2109 37.1072V2.84043C16.2109 1.3607 17.4154 0.15625 18.8951 0.15625H35.1057C36.5854 0.15625 37.7898 1.3607 37.7898 2.84043V37.1072C37.7898 38.588 36.5854 39.7914 35.1057 39.7914ZM18.8951 1.42188C18.1125 1.42188 17.4766 2.05891 17.4766 2.84043V37.1072C17.4766 37.8898 18.1125 38.5268 18.8951 38.5268H35.1057C35.8872 38.5268 36.5242 37.8898 36.5242 37.1072V2.84043C36.5242 2.05891 35.8872 1.42188 35.1057 1.42188H18.8951Z" fill="black"/>
<path fill-rule="evenodd" clip-rule="evenodd" d="M51.3146 41.8437H35.1052C33.6244 41.8437 32.4199 40.6393 32.4199 39.1585C32.4199 38.8094 32.7036 38.5267 33.0527 38.5267C33.4029 38.5267 33.6855 38.8094 33.6855 39.1585C33.6855 39.9411 34.3226 40.5781 35.1052 40.5781H51.3146C52.0972 40.5781 52.7343 39.9411 52.7343 39.1585V4.89275C52.7343 4.11018 52.0972 3.47314 51.3146 3.47314H37.1565C36.8074 3.47314 36.5237 3.19049 36.5237 2.84033C36.5237 2.49123 36.8074 2.20752 37.1565 2.20752H51.3146C52.7954 2.20752 53.9999 3.41197 53.9999 4.89275V39.1596C53.9999 40.6393 52.7954 41.8437 51.3146 41.8437Z" fill="black"/>
<path fill-rule="evenodd" clip-rule="evenodd" d="M8.73777 17.8411C6.94586 17.8411 5.48828 16.3835 5.48828 14.5916C5.48828 14.2425 5.77199 13.9588 6.12109 13.9588C6.47125 13.9588 6.75391 14.2425 6.75391 14.5916C6.75391 15.6853 7.64406 16.5754 8.73777 16.5754C9.83148 16.5754 10.7216 15.6853 10.7216 14.5916C10.7216 13.4979 9.83148 12.6088 8.73777 12.6088C6.94586 12.6088 5.48828 11.1512 5.48828 9.35928C5.48828 7.56842 6.94586 6.11084 8.73777 6.11084C10.5297 6.11084 11.9873 7.56842 11.9873 9.35928C11.9873 9.70943 11.7036 9.99209 11.3545 9.99209C11.0043 9.99209 10.7216 9.70943 10.7216 9.35928C10.7216 8.26557 9.83148 7.37646 8.73777 7.37646C7.64406 7.37646 6.75391 8.26557 6.75391 9.35928C6.75391 10.453 7.64406 11.3431 8.73777 11.3431C10.5297 11.3431 11.9873 12.8007 11.9873 14.5916C11.9873 16.3835 10.5297 17.8411 8.73777 17.8411Z" fill="black"/>
<path fill-rule="evenodd" clip-rule="evenodd" d="M13.2012 20.8311H4.27539C3.92523 20.8311 3.64258 20.5473 3.64258 20.1982C3.64258 19.8481 3.92523 19.5654 4.27539 19.5654H13.2012C13.5503 19.5654 13.834 19.8481 13.834 20.1982C13.834 20.5473 13.5503 20.8311 13.2012 20.8311Z" fill="black"/>
<path fill-rule="evenodd" clip-rule="evenodd" d="M13.2012 26.6792H4.27539C3.92523 26.6792 3.64258 26.3955 3.64258 26.0464C3.64258 25.6962 3.92523 25.4136 4.27539 25.4136H13.2012C13.5503 25.4136 13.834 25.6962 13.834 26.0464C13.834 26.3955 13.5503 26.6792 13.2012 26.6792Z" fill="black"/>
<path fill-rule="evenodd" clip-rule="evenodd" d="M13.2012 32.5264H4.27539C3.92523 32.5264 3.64258 32.2437 3.64258 31.8936C3.64258 31.5445 3.92523 31.2607 4.27539 31.2607H13.2012C13.5503 31.2607 13.834 31.5445 13.834 31.8936C13.834 32.2437 13.5503 32.5264 13.2012 32.5264Z" fill="black"/>
<path fill-rule="evenodd" clip-rule="evenodd" d="M13.6117 37.9413H3.86426C3.51516 37.9413 3.23145 37.6576 3.23145 37.3085V34.8975C3.23145 34.5473 3.51516 34.2646 3.86426 34.2646H13.6117C13.9608 34.2646 14.2445 34.5473 14.2445 34.8975V37.3085C14.2445 37.6576 13.9608 37.9413 13.6117 37.9413ZM4.49813 36.6757H12.9789V35.5303H4.49813V36.6757Z" fill="black"/>
<path fill-rule="evenodd" clip-rule="evenodd" d="M45.2622 17.8411C43.4703 17.8411 42.0127 16.3835 42.0127 14.5916C42.0127 14.2425 42.2964 13.9588 42.6455 13.9588C42.9946 13.9588 43.2783 14.2425 43.2783 14.5916C43.2783 15.6853 44.1685 16.5754 45.2622 16.5754C46.3559 16.5754 47.245 15.6853 47.245 14.5916C47.245 13.4979 46.3559 12.6088 45.2622 12.6088C43.4703 12.6088 42.0127 11.1512 42.0127 9.35928C42.0127 7.56842 43.4703 6.11084 45.2622 6.11084C47.053 6.11084 48.5106 7.56842 48.5106 9.35928C48.5106 9.70943 48.228 9.99209 47.8778 9.99209C47.5287 9.99209 47.245 9.70943 47.245 9.35928C47.245 8.26557 46.3559 7.37646 45.2622 7.37646C44.1685 7.37646 43.2783 8.26557 43.2783 9.35928C43.2783 10.453 44.1685 11.3431 45.2622 11.3431C47.053 11.3431 48.5106 12.8007 48.5106 14.5916C48.5106 16.3835 47.053 17.8411 45.2622 17.8411Z" fill="black"/>
<path fill-rule="evenodd" clip-rule="evenodd" d="M49.7246 20.8374H40.7988C40.4497 20.8374 40.166 20.5537 40.166 20.2046C40.166 19.8555 40.4497 19.5718 40.7988 19.5718H49.7246C50.0748 19.5718 50.3575 19.8555 50.3575 20.2046C50.3575 20.5537 50.0748 20.8374 49.7246 20.8374Z" fill="black"/>
<path fill-rule="evenodd" clip-rule="evenodd" d="M49.7246 26.6855H40.7988C40.4497 26.6855 40.166 26.4018 40.166 26.0527C40.166 25.7026 40.4497 25.4199 40.7988 25.4199H49.7246C50.0748 25.4199 50.3575 25.7026 50.3575 26.0527C50.3575 26.4018 50.0748 26.6855 49.7246 26.6855Z" fill="black"/>
<path fill-rule="evenodd" clip-rule="evenodd" d="M49.7246 32.5327H40.7988C40.4497 32.5327 40.166 32.2501 40.166 31.8999C40.166 31.5508 40.4497 31.2671 40.7988 31.2671H49.7246C50.0748 31.2671 50.3575 31.5508 50.3575 31.8999C50.3575 32.2501 50.0748 32.5327 49.7246 32.5327Z" fill="black"/>
<path fill-rule="evenodd" clip-rule="evenodd" d="M50.135 37.9413H40.3887C40.0396 37.9413 39.7559 37.6576 39.7559 37.3085V34.8975C39.7559 34.5473 40.0396 34.2646 40.3887 34.2646H50.135C50.4852 34.2646 50.7679 34.5473 50.7679 34.8975V37.3085C50.7679 37.6576 50.4852 37.9413 50.135 37.9413ZM41.0215 36.6757H49.5022V35.5303H41.0215V36.6757Z" fill="black"/>
<path fill-rule="evenodd" clip-rule="evenodd" d="M27.0005 15.2205C25.2086 15.2205 23.751 13.7639 23.751 11.972C23.751 11.6229 24.0347 11.3392 24.3838 11.3392C24.7339 11.3392 25.0166 11.6229 25.0166 11.972C25.0166 13.0657 25.9068 13.9548 27.0005 13.9548C28.0942 13.9548 28.9843 13.0657 28.9843 11.972C28.9843 10.8783 28.0942 9.98816 27.0005 9.98816C25.2086 9.98816 23.751 8.53059 23.751 6.73973C23.751 4.94781 25.2086 3.49023 27.0005 3.49023C28.7924 3.49023 30.25 4.94781 30.25 6.73973C30.25 7.08883 29.9662 7.37254 29.6171 7.37254C29.267 7.37254 28.9843 7.08883 28.9843 6.73973C28.9843 5.64602 28.0942 4.75586 27.0005 4.75586C25.9068 4.75586 25.0166 5.64602 25.0166 6.73973C25.0166 7.83344 25.9068 8.72254 27.0005 8.72254C28.7924 8.72254 30.25 10.1801 30.25 11.972C30.25 13.7639 28.7924 15.2205 27.0005 15.2205Z" fill="black"/>
<path fill-rule="evenodd" clip-rule="evenodd" d="M31.4629 18.7851H22.5381C22.1879 18.7851 21.9053 18.5024 21.9053 18.1523C21.9053 17.8032 22.1879 17.5205 22.5381 17.5205H31.4629C31.813 17.5205 32.0957 17.8032 32.0957 18.1523C32.0957 18.5024 31.813 18.7851 31.4629 18.7851Z" fill="black"/>
<path fill-rule="evenodd" clip-rule="evenodd" d="M31.4629 24.6333H22.5381C22.1879 24.6333 21.9053 24.3506 21.9053 24.0005C21.9053 23.6514 22.1879 23.3677 22.5381 23.3677H31.4629C31.813 23.3677 32.0957 23.6514 32.0957 24.0005C32.0957 24.3506 31.813 24.6333 31.4629 24.6333Z" fill="black"/>
<path fill-rule="evenodd" clip-rule="evenodd" d="M31.4629 30.4814H22.5381C22.1879 30.4814 21.9053 30.1977 21.9053 29.8486C21.9053 29.4995 22.1879 29.2158 22.5381 29.2158H31.4629C31.813 29.2158 32.0957 29.4995 32.0957 29.8486C32.0957 30.1977 31.813 30.4814 31.4629 30.4814Z" fill="black"/>
<path fill-rule="evenodd" clip-rule="evenodd" d="M31.8723 36.4574H22.126C21.7769 36.4574 21.4932 36.1737 21.4932 35.8246V33.4136C21.4932 33.0645 21.7769 32.7808 22.126 32.7808H31.8723C32.2225 32.7808 32.5052 33.0645 32.5052 33.4136V35.8246C32.5052 36.1747 32.2225 36.4574 31.8723 36.4574ZM22.7588 35.1918H31.2395V34.0464H22.7588V35.1918Z" fill="black"/>
</svg>
