<svg width="37" height="43" viewBox="0 0 37 43" fill="none" xmlns="http://www.w3.org/2000/svg">
<path d="M0.707648 43H2.71387C3.08541 43 3.38574 42.6997 3.38574 42.3281V40.9703H33.6147V42.3281C33.6147 42.6997 33.9151 43 34.2866 43H36.3022C36.6738 43 36.9741 42.6997 36.9741 42.3281V1.67969C36.9741 0.753844 36.2209 0 35.2944 0C34.3679 0 33.6147 0.753844 33.6147 1.67969V12.0964H31.6005V2.69287C31.6005 2.322 31.3001 2.021 30.9286 2.021H20.1813C19.8097 2.021 19.5094 2.322 19.5094 2.69287V12.0958H17.4924V2.69287C17.4924 2.322 17.1921 2.021 16.8206 2.021H6.07324C5.7017 2.021 5.40137 2.322 5.40137 2.69287V12.0958H3.38574V1.67969C3.38574 0.753844 2.63257 0 1.70605 0C0.779539 0 0.0263672 0.753844 0.0263672 1.67969L0.0357734 42.3281C0.0357734 42.6997 0.336102 43 0.707648 43ZM34.9585 1.67969C34.9585 1.49425 35.1097 1.34375 35.2944 1.34375C35.4792 1.34375 35.6304 1.49425 35.6304 1.67969V41.6562H34.9585V1.67969ZM24.8817 3.36475H26.2268V4.042H24.8817V3.36475ZM20.8531 3.36475H23.538V4.71387C23.538 5.08475 23.8383 5.38575 24.2098 5.38575H26.8987C27.2702 5.38575 27.5706 5.08475 27.5706 4.71387V3.36475H30.2567V12.0958H20.8531V3.36475ZM10.7737 3.36475H12.1174V4.042H10.7737V3.36475ZM6.74512 3.36475H9.42993V4.71387C9.42993 5.08475 9.73026 5.38575 10.1018 5.38575H12.7893C13.1609 5.38575 13.4612 5.08475 13.4612 4.71387V3.36475H16.1487V12.0958H6.74512V3.36475ZM3.38574 13.4395H6.07324H16.8206H20.1813H30.9286H33.6147V14.1114H3.38574V13.4395ZM3.38574 15.4551H33.6147V24.8419H31.6018V17.458C31.6018 17.0871 31.3015 16.7861 30.9299 16.7861H6.07055C5.69901 16.7861 5.39868 17.0871 5.39868 17.458V24.8426H3.38574V15.4551ZM16.8206 20.1455H20.1799C20.5515 20.1455 20.8518 19.8445 20.8518 19.4736V18.1299H30.2581V24.8426H6.74243V18.1299H16.1487V19.4736C16.1487 19.8445 16.449 20.1455 16.8206 20.1455ZM17.4924 18.8018V18.1299H19.5081V18.8018H17.4924ZM3.38574 26.1863H6.07055H30.9299H33.6147V26.8595H3.38574V26.1863ZM3.38574 28.2033H33.6147V37.6095H31.6031V29.5538C31.6031 29.1822 31.3028 28.8819 30.9313 28.8819H21.5237C21.1521 28.8819 20.8518 29.1822 20.8518 29.5538V37.6095H18.8402V31.5707C18.8402 31.1992 18.5399 30.8989 18.1683 30.8989H13.4692C13.4666 30.8989 13.4652 30.8975 13.4625 30.8975C13.4598 30.8975 13.4585 30.8989 13.4558 30.8989H10.7804C10.7777 30.8989 10.7764 30.8975 10.7737 30.8975C10.771 30.8975 10.7696 30.8989 10.767 30.8989H6.07324C5.7017 30.8989 5.40137 31.1992 5.40137 31.5707V37.6095H3.38574V28.2033ZM24.8831 32.246H27.5719C27.9434 32.246 28.2438 31.9456 28.2438 31.5741V30.225H30.2594V37.6089H22.1956V30.225H24.2112V31.5741C24.2112 31.9456 24.5115 32.246 24.8831 32.246ZM25.5549 30.9022V30.225H26.9V30.9022H25.5549ZM10.7737 34.2616H13.4625C13.8341 34.2616 14.1344 33.9613 14.1344 33.5897V32.2419H17.4965V37.6089H6.74512V32.2419H10.1018V33.5897C10.1018 33.9613 10.4021 34.2616 10.7737 34.2616ZM11.4456 32.9178V32.2419H12.7906V32.9178H11.4456ZM3.38574 38.9533H6.07324H18.1683H21.5237H30.9313H33.6147V39.6265H3.38574V38.9533ZM1.70605 1.34375C1.89082 1.34375 2.04199 1.49425 2.04199 1.67969V41.6562H1.37952L1.37012 1.67969C1.37012 1.49425 1.52129 1.34375 1.70605 1.34375Z" fill="black"/>
</svg>
