<svg width="53" height="47" viewBox="0 0 53 47" fill="none" xmlns="http://www.w3.org/2000/svg">
<path d="M5.01562 26.9375H30.7969C31.4804 26.9368 32.1357 26.6649 32.6191 26.1816C33.1024 25.6982 33.3743 25.0429 33.375 24.3594V20.9219C33.3743 20.2383 33.1024 19.583 32.6191 19.0997C32.1357 18.6164 31.4804 18.3445 30.7969 18.3438H5.01562C3.87643 18.3451 2.78428 18.7982 1.97875 19.6038C1.17322 20.4093 0.720087 21.5014 0.71875 22.6406V29.5156C0.720087 30.6548 1.17322 31.747 1.97875 32.5525C2.78428 33.358 3.87643 33.8112 5.01562 33.8125C5.24355 33.8125 5.46213 33.722 5.62329 33.5608C5.78446 33.3996 5.875 33.181 5.875 32.9531C5.875 32.7252 5.78446 32.5066 5.62329 32.3455C5.46213 32.1843 5.24355 32.0938 5.01562 32.0938C4.33186 32.0938 3.67611 31.8221 3.19262 31.3386C2.70912 30.8551 2.4375 30.1994 2.4375 29.5156C2.4375 28.8319 2.70912 28.1761 3.19262 27.6926C3.67611 27.2091 4.33186 26.9375 5.01562 26.9375ZM2.4375 22.6406C2.43825 21.9571 2.71011 21.3018 3.19344 20.8184C3.67677 20.3351 4.33209 20.0632 5.01562 20.0625H30.7969C31.0247 20.0627 31.2432 20.1532 31.4044 20.3144C31.5655 20.4755 31.6561 20.694 31.6562 20.9219V24.3594C31.6561 24.5872 31.5655 24.8057 31.4044 24.9669C31.2432 25.128 31.0247 25.2186 30.7969 25.2188H28.2188V22.6406C28.2188 22.4127 28.1282 22.1941 27.967 22.033C27.8059 21.8718 27.5873 21.7812 27.3594 21.7812C27.1315 21.7812 26.9129 21.8718 26.7517 22.033C26.5905 22.1941 26.5 22.4127 26.5 22.6406V25.2188H23.0625V23.5C23.0625 23.2721 22.972 23.0535 22.8108 22.8923C22.6496 22.7312 22.431 22.6406 22.2031 22.6406C21.9752 22.6406 21.7566 22.7312 21.5955 22.8923C21.4343 23.0535 21.3438 23.2721 21.3438 23.5V25.2188H17.9062V22.6406C17.9062 22.4127 17.8157 22.1941 17.6545 22.033C17.4934 21.8718 17.2748 21.7812 17.0469 21.7812C16.819 21.7812 16.6004 21.8718 16.4392 22.033C16.278 22.1941 16.1875 22.4127 16.1875 22.6406V25.2188H12.75V23.5C12.75 23.2721 12.6595 23.0535 12.4983 22.8923C12.3371 22.7312 12.1185 22.6406 11.8906 22.6406C11.6627 22.6406 11.4441 22.7312 11.283 22.8923C11.1218 23.0535 11.0312 23.2721 11.0312 23.5V25.2188H7.59375V22.6406C7.59375 22.4127 7.50321 22.1941 7.34204 22.033C7.18088 21.8718 6.9623 21.7812 6.73438 21.7812C6.50645 21.7812 6.28787 21.8718 6.12671 22.033C5.96554 22.1941 5.875 22.4127 5.875 22.6406V25.2188H5.01562C4.08545 25.2176 3.18029 25.5199 2.4375 26.0798V22.6406ZM9.04395 16.5386C9.14543 16.5879 9.25565 16.6168 9.36831 16.6235C9.48097 16.6303 9.59385 16.6147 9.70049 16.5778C9.80712 16.5408 9.90543 16.4832 9.98977 16.4082C10.0741 16.3332 10.1428 16.2423 10.192 16.1408C10.9548 14.4145 12.2244 12.961 13.8324 11.9731C15.4403 10.9852 17.3107 10.5096 19.1953 10.6094C21.7004 10.6101 24.1078 11.5811 25.9125 13.3184C26.0716 13.468 26.2817 13.5513 26.5 13.5513C26.7183 13.5513 26.9284 13.468 27.0875 13.3184C28.8922 11.5811 31.2996 10.6101 33.8047 10.6094C40.7317 10.6094 44.5469 15.7975 44.5469 25.2188C44.5469 26.0211 44.5066 26.8611 44.4269 27.7172C44.4058 27.9442 44.4758 28.1702 44.6213 28.3457C44.7669 28.5212 44.9762 28.6316 45.2032 28.6529C45.2309 28.6554 45.2577 28.6562 45.2837 28.6562C45.4977 28.656 45.7039 28.576 45.8621 28.4318C46.0202 28.2876 46.1189 28.0897 46.1389 27.8766C46.2228 26.9677 46.2656 26.0731 46.2656 25.2188C46.2656 14.8416 41.7237 8.89062 33.8047 8.89062C32.1731 8.88625 30.5602 9.23745 29.0781 9.91979V9.75C29.0795 8.61081 29.5326 7.51866 30.3381 6.71313C31.1437 5.9076 32.2358 5.45446 33.375 5.45312C34.0588 5.45312 34.7145 5.1815 35.198 4.69801C35.6815 4.21452 35.9531 3.55876 35.9531 2.875C35.9531 2.19124 35.6815 1.53548 35.198 1.05199C34.7145 0.568498 34.0588 0.296875 33.375 0.296875C30.8687 0.299707 28.466 1.29657 26.6938 3.06876C24.9216 4.84095 23.9247 7.24374 23.9219 9.75V9.91979C22.4398 9.23745 20.8269 8.88625 19.1953 8.89062C16.9884 8.79406 14.8033 9.36189 12.9226 10.5207C11.042 11.6794 9.55223 13.3759 8.64615 15.3905C8.59687 15.492 8.56806 15.6022 8.56138 15.7148C8.5547 15.8275 8.57028 15.9403 8.60722 16.0469C8.64416 16.1535 8.70174 16.2518 8.77668 16.3362C8.85161 16.4205 8.94243 16.4893 9.04395 16.5386ZM25.6406 9.75C25.6429 7.6994 26.4585 5.73344 27.9084 4.28344C29.3584 2.83345 31.3244 2.01786 33.375 2.01562C33.6029 2.01562 33.8215 2.10617 33.9827 2.26733C34.1438 2.42849 34.2344 2.64708 34.2344 2.875C34.2344 3.10292 34.1438 3.32151 33.9827 3.48267C33.8215 3.64383 33.6029 3.73438 33.375 3.73438C31.7801 3.7363 30.2512 4.37071 29.1234 5.49844C27.9957 6.62617 27.3613 8.15515 27.3594 9.75V10.8998C27.0664 11.1016 26.7792 11.3158 26.5 11.5468C26.2208 11.3158 25.9336 11.1016 25.6406 10.8998V9.75ZM40.6898 40.8763C40.8675 41.019 40.9814 41.2265 41.0062 41.4531C41.0311 41.6798 40.965 41.907 40.8223 42.0848C38.3978 45.1061 35.5252 46.7031 32.5156 46.7031C30.3046 46.7164 28.165 45.9206 26.5 44.4657C24.835 45.9206 22.6954 46.7164 20.4844 46.7031C13.387 46.7031 8.36752 38.122 7.07846 29.6449C7.04477 29.4199 7.10169 29.1907 7.23674 29.0077C7.37178 28.8246 7.57393 28.7026 7.79883 28.6683C8.02373 28.6341 8.25302 28.6905 8.43641 28.8251C8.6198 28.9597 8.74231 29.1616 8.77707 29.3864C9.92766 36.9479 14.4218 44.9844 20.4844 44.9844C21.4946 44.9851 22.4947 44.7821 23.4248 44.3876C24.3548 43.9931 25.1958 43.4151 25.8974 42.6882C26.0581 42.5301 26.2746 42.4415 26.5 42.4415C26.7254 42.4415 26.9419 42.5301 27.1026 42.6882C27.8042 43.4151 28.6452 43.9931 29.5752 44.3876C30.5053 44.7821 31.5054 44.9851 32.5156 44.9844C35.6367 44.9844 38.026 42.8225 39.4813 41.0089C39.6242 40.8315 39.8317 40.718 40.0581 40.6932C40.2846 40.6683 40.5117 40.7342 40.6898 40.8763ZM49.0561 23.6385C48.8353 23.5822 48.6012 23.6159 48.4052 23.7322C48.3082 23.7898 48.2235 23.8659 48.1559 23.9562C48.0883 24.0466 48.0391 24.1493 48.0112 24.2587C47.9833 24.368 47.9773 24.4817 47.9933 24.5934C48.0094 24.7051 48.0473 24.8125 48.1049 24.9095C48.2212 25.1055 48.4106 25.2472 48.6314 25.3035C49.2386 25.4607 49.7676 25.8339 50.1192 26.3532C50.4709 26.8724 50.6211 27.5021 50.5418 28.1243C50.4624 28.7464 50.1589 29.3182 49.6881 29.7325C49.2173 30.1469 48.6115 30.3753 47.9844 30.375H22.2031C21.5196 30.3757 20.8643 30.6476 20.3809 31.1309C19.8976 31.6143 19.6257 32.2696 19.625 32.9531V36.3906C19.6257 37.0742 19.8976 37.7295 20.3809 38.2128C20.8643 38.6961 21.5196 38.968 22.2031 38.9688H47.9844C49.1236 38.9674 50.2157 38.5143 51.0212 37.7087C51.8268 36.9032 52.2799 35.8111 52.2812 34.6719V27.7969C52.2829 26.8437 51.9667 25.9172 51.3825 25.164C50.7984 24.4108 49.9797 23.874 49.0561 23.6385ZM50.5625 34.6719C50.5618 35.3554 50.2899 36.0107 49.8066 36.4941C49.3232 36.9774 48.6679 37.2493 47.9844 37.25H47.125V34.6719C47.125 34.444 47.0345 34.2254 46.8733 34.0642C46.7121 33.903 46.4935 33.8125 46.2656 33.8125C46.0377 33.8125 45.8191 33.903 45.658 34.0642C45.4968 34.2254 45.4062 34.444 45.4062 34.6719V37.25H41.9688V35.5312C41.9688 35.3033 41.8782 35.0847 41.717 34.9236C41.5559 34.7624 41.3373 34.6719 41.1094 34.6719C40.8815 34.6719 40.6629 34.7624 40.5017 34.9236C40.3405 35.0847 40.25 35.3033 40.25 35.5312V37.25H36.8125V34.6719C36.8125 34.444 36.722 34.2254 36.5608 34.0642C36.3996 33.903 36.181 33.8125 35.9531 33.8125C35.7252 33.8125 35.5066 33.903 35.3455 34.0642C35.1843 34.2254 35.0938 34.444 35.0938 34.6719V37.25H31.6562V35.5312C31.6562 35.3033 31.5657 35.0847 31.4045 34.9236C31.2434 34.7624 31.0248 34.6719 30.7969 34.6719C30.569 34.6719 30.3504 34.7624 30.1892 34.9236C30.028 35.0847 29.9375 35.3033 29.9375 35.5312V37.25H26.5V34.6719C26.5 34.444 26.4095 34.2254 26.2483 34.0642C26.0871 33.903 25.8685 33.8125 25.6406 33.8125C25.4127 33.8125 25.1941 33.903 25.033 34.0642C24.8718 34.2254 24.7812 34.444 24.7812 34.6719V37.25H22.2031C21.9753 37.2498 21.7568 37.1593 21.5956 36.9981C21.4345 36.837 21.3439 36.6185 21.3438 36.3906V32.9531C21.3439 32.7253 21.4345 32.5068 21.5956 32.3456C21.7568 32.1845 21.9753 32.0939 22.2031 32.0938H47.9844C48.9146 32.0949 49.8197 31.7926 50.5625 31.2327V34.6719Z" fill="black"/>
</svg>
