<svg width="583" height="534" viewBox="0 0 583 534" fill="none" xmlns="http://www.w3.org/2000/svg">
<path d="M313.852 13.3117C488.871 -10.2678 580.131 136.641 574.274 318.591C560.588 544.805 298.253 578.174 131.391 486.572C-100.942 358.527 12.2514 99.5707 182.998 23.6687C317.198 -36.0858 548.068 11.103 579.474 236.988C615.362 499.019 369.313 553.848 219.275 495.288C159.63 471.828 126.222 437.175 102.705 394.642C20.2897 217.558 165.577 30.5635 343.973 57.9037C459.318 75.8122 541.344 142.73 539.611 261.045C537.489 352.259 488.602 440.577 400.061 475.379C207.621 549.52 -11.7439 348.17 53.9967 190.575C70.402 150.699 105.334 108.018 153.146 79.4536C296.191 -9.19326 618.29 52.7998 555.209 312.234C547.679 343.155 535.009 371.928 518.574 397.209C398.597 580.413 130.226 512.599 51.9647 411.745C12.1618 360.616 26.804 310.562 26.2362 315.248C10.6677 444.786 180.816 509.376 292.785 509.525C465.085 513.674 578.278 364.914 556.166 215.617C537.429 92.5566 416.586 48.2929 292.008 46.9199C142.119 45.5171 -10.4291 184.845 71.9858 338.469C163.186 505.734 400.211 541.014 496.67 387.061C559.662 286.445 563.188 97.6903 343.136 63.1867C40.0717 16.386 -45.8992 531.761 355.388 511.375C502.916 502.6 598.09 408.85 575.708 237.496C544.96 14.2967 316.84 -32.2951 184.253 26.5341C16.2257 101.003 -98.2825 356.945 132.467 484.602C297.446 575.518 558.855 544.029 572.929 318.561C578.936 140.462 490.754 -9.64096 313.911 13.8788C313.523 13.9385 313.433 13.3415 313.822 13.2818L313.852 13.3117Z" fill="white"/>
</svg>
